# xmcd
# Copyright (C) 1995-1998 Ti Kan
#
# Track frame offsets:
#       150
#       15787
#       35071
#       57279
#       79796
#       103834
#       118136
#       139102
#       160661
#       177942
#       200783
#       220751
#
# Disc length: 3327 seconds
#
# Revision: 0
# Processed by: cddbd v1.5.2PL0 Copyright (c) Steve Scherf et al.
# Submitted via: CD-Import v1.0
#
DISCID=a30cfd0c
DTITLE=Moonplain - The Voice In Your Head
DYEAR=2009
DGENRE=
TTITLE0=Born To Learn How To Forget
TTITLE1=Higher
TTITLE2=Home
TTITLE3=Cry For Me
TTITLE4=Behind The Mirror
TTITLE5=Reflections
TTITLE6=Dream On
TTITLE7=Red Sky
TTITLE8=Never Knowing How Or Why
TTITLE9=Minds
TTITLE10=One Flower
TTITLE11=Where Is My Bay
EXTD=
EXTT0=
EXTT1=
EXTT2=
EXTT3=
EXTT4=
EXTT5=
EXTT6=
EXTT7=
EXTT8=
EXTT9=
EXTT10=
EXTT11=
PLAYORDER=
